<?xml version="1.0" encoding="UTF-8"?>
	<svg id="Layer_1" style="background-color: #285c4d;" xmlns="http://www.w3.org/2000/svg" viewBox="0 0 7000 7000" padding="30">
	<defs>
	<style>.cls-1{fill:#f5c469;stroke-width:0px;}</style></defs><path class="cls-1" d="m303.87,385.14c-6.13-.79-14.28-2.3-14.28-6.19,0-4.15,6.56-6.33,13.03-6.33,5.16,0,9.19,1.21,11.98,3.59l.96.82,3.72-2.89-1.46-1.24c-3.76-3.18-8.73-4.73-15.2-4.73-8.88,0-17.84,3.33-17.84,10.77,0,7.83,10.22,9.34,19.24,10.67,1.05.15,2.09.31,3.08.47,7.52,1.25,8.39,3.66,8.39,5.35,0,5.08-8.35,6.92-13.97,6.92-5.09,0-10.34-1.6-13.07-3.08l-1.12-.61-.81.98c-.36.43-.72.87-1.02,1.3l-.99,1.42,1.52.83c4.03,2.19,10.25,3.66,15.49,3.66,8.64,0,18.72-2.98,18.72-11.36s-11.92-9.89-16.38-10.36Z"/><path class="cls-1" d="m360.96,368.68h-18.94v37.83h4.7v-13.23h14.24c5.77,0,14.16-4.75,14.16-12.2,0-9.04-8.68-12.4-14.16-12.4Zm-14.24,4.54h14.24c2.61,0,9.4,1.41,9.4,7.86,0,4.75-6.09,7.66-9.4,7.66h-14.24v-15.52Z"/><path class="cls-1" d="m401.77,396.09c.01-2.03.02-4.06.03-6.02h22.4v-4.49h-22.4v-12.4h28.07v-4.49h-32.77v1.55c0,5.8-.02,11.58-.03,17.36-.02,5.78-.03,11.57-.03,17.37v1.55h33.48v-4.49h-28.78c0-1.93.02-3.93.03-5.93Z"/><path class="cls-1" d="m486.77,397.81c-2.37,1.72-7.49,4.61-15.21,4.61-8.62,0-17.93-5.68-17.93-14.85s9.22-14.85,17.76-14.85c5.53,0,10.23,1.4,14.78,4.4l1.08.71,3.23-3.37-1.55-1.03c-5.31-3.51-11.04-5.21-17.53-5.21-10.83,0-22.52,7.39-22.52,19.34s11.78,19.34,22.69,19.34c9.13,0,15.28-3.48,18.14-5.55l1.52-1.1-3.4-3.21-1.04.76Z"/><rect class="cls-1" x="514.85" y="368.68" width="4.7" height="37.83"/><path class="cls-1" d="m561.62,368.58l-4.97,9.97c-4.28,8.58-8.57,17.16-12.8,25.73l-1.11,2.24h5.22l4.4-8.87h21.64l4.51,8.87h5.21l-18.76-37.93h-3.36Zm-6.99,24.57l8.61-17.26,8.61,17.26h-17.22Z"/><polygon class="cls-1" points="607.82 368.68 603.12 368.68 603.12 406.51 636.33 406.51 636.33 402.02 607.82 402.02 607.82 368.68"/><polygon class="cls-1" points="646.92 373.22 665.25 373.22 665.25 406.51 670 406.51 670 373.22 687.94 373.22 687.94 368.68 646.92 368.68 646.92 373.22"/><polygon class="cls-1" points="722.65 387.36 709.02 368.68 703.32 368.68 720.22 391.94 720.22 406.51 725.03 406.51 725.03 392.14 742.22 368.68 736.28 368.68 722.65 387.36"/><path class="cls-1" d="m838.07,397.81c-2.37,1.72-7.5,4.61-15.21,4.61-8.62,0-17.93-5.68-17.93-14.85s9.22-14.85,17.77-14.85c5.53,0,10.23,1.4,14.78,4.4l1.08.71,3.23-3.37-1.55-1.03c-5.31-3.51-11.04-5.21-17.53-5.21-10.83,0-22.52,7.39-22.52,19.34s11.78,19.34,22.68,19.34c9.13,0,15.28-3.48,18.14-5.55l1.51-1.1-3.4-3.21-1.04.76Z"/><path class="cls-1" d="m897.3,387.62c0,9.58-4.89,14.65-14.13,14.65s-14.74-4.88-14.74-14.1l.06-19.49h-4.7l-.06,19.49c0,11.64,7.27,18.59,19.44,18.59s18.94-6.98,18.94-19.14v-18.99h-4.81v18.99Z"/><polygon class="cls-1" points="930.39 368.68 925.69 368.68 925.69 406.51 958.9 406.51 958.9 402.02 930.39 402.02 930.39 368.68"/><polygon class="cls-1" points="969.49 373.22 987.82 373.22 987.82 406.51 992.57 406.51 992.57 373.22 1010.51 373.22 1010.51 368.68 969.49 368.68 969.49 373.22"/><path class="cls-1" d="m1064.31,387.62c0,9.58-4.89,14.65-14.13,14.65s-14.74-4.88-14.74-14.1l.06-19.49h-4.7l-.06,19.49c0,11.64,7.27,18.59,19.44,18.59s18.94-6.98,18.94-19.14v-18.99h-4.81v18.99Z"/><path class="cls-1" d="m1125.9,380.44c0-7.57-7.95-11.76-13.44-11.76h-19.77v37.83h4.7v-14.47h11.02l12.94,14.47h6.22l-13.13-14.56c5.6-.73,11.47-5.5,11.47-11.51Zm-28.51-7.22h15.07c3.63,0,8.68,2.75,8.68,7.22,0,3.77-4.58,7.12-8.19,7.12h-15.56v-14.33Z"/><path class="cls-1" d="m1153,396.09c.01-2.03.02-4.06.03-6.02h22.4v-4.49h-22.4v-12.4h28.07v-4.49h-32.77v1.55c0,5.8-.01,11.58-.03,17.36-.01,5.78-.03,11.57-.03,17.37v1.55h33.48v-4.49h-28.78c0-1.93.02-3.93.03-5.93Z"/><path class="cls-1" d="m1168.06,264.57h-163.18L1005.16.03h-182.52s0,235.48,0,235.48c0,21.48-8.74,37.12-27.68,49.36-23.8,17.08-57.32,19.72-83.4,6.57-22.33-11.25-34.85-32.03-35.24-58.49h-.09c.09-.86.09-1.73.09-2.49l.13-230.46L129.66.03C90.05-1.44,49.63,20.41,29.12,54.39c-17.03,28.21-17.58,60.43-1.5,88.42,8.2,13.98,20.14,25.44,38.73,37.15l32.83,20.67c33.19,20.89,67.52,42.49,101.21,63.84,6.45,4.09,12.98,8.83,19.96,14.49,11,8.92,14.03,19.9,14.62,27.52,1,13.69-3.53,26.38-13.11,36.68-12.32,13.25-31.79,21.17-52.08,21.17H22.61c-12.47,0-22.61,10.14-22.61,22.61s10.14,22.61,22.61,22.61h146.5c34.09,0,59.42-10.65,84.72-35.6,28.78-28.4,34.97-73.6,14.72-107.49-8.13-13.6-19.82-24.76-37.93-36.19l-15.12-9.55c-39.7-25.06-79.92-50.45-119.82-75.78-6.44-4.09-12.75-8.62-18.86-13.55-8.74-6.68-14.13-16.51-15.18-27.67-1.13-11.92,2.81-23.87,10.8-32.82,15.06-17,33.8-25.65,55.7-25.7l196.88-.05c-47.17,54.18-56.42,128.62-22.45,188.4,29.31,51.63,71.19,77.35,124.44,76.45,52.99.69,94.68-25.07,123.85-76.45,33.97-59.78,24.72-134.22-22.45-188.4l102.8.02v160.72c-1.14,34.69,1.47,50.25,3.14,56.47,10.58,38.12,41.8,66.96,83.54,77.16,44.81,10.95,92.32-1.88,121.01-32.67,19.31-20.26,29.06-43.96,28.99-70.42l-.09-191.27h91.54s.06,264.42.06,264.42h208.67c12.4,0,22.49-10.09,22.49-22.49s-10.09-22.49-22.49-22.49Zm-738.13,3.67h-2.87c-.07,0-.15,0-.22,0-20.47,0-49.07-5.46-69.66-31.45-20.63-24.09-29.82-51.35-29.81-88.29.77-49.26,38.2-100.15,99.5-100.15h1.83c46.74.73,96.34,35.74,97.37,100.12,0,36.99-9.19,64.24-29.92,88.46-19.59,24.74-46.29,30.82-66.21,31.31Z"/></svg>